<svg width="200" height="55" viewBox="0 0 200 55" fill="none" xmlns="http://www.w3.org/2000/svg">
<g clip-path="url(#clip0_2068_43061)">
<path d="M33.7501 3.31982H46.3873L46.4449 50.911H34.6386L34.5522 43.6956L19.7635 43.708L15.6539 50.911H3.46094L33.7501 3.31982ZM25.6296 32.7697L34.6098 32.6833L34.9883 16.3848L25.6296 32.7656V32.7697Z" fill="#B60E0E"/>
<path d="M71.8128 23.2547H87.9879L86.0462 31.8235H69.1019L63.1576 51.0427L50.8906 50.8905L64.8443 3.25391H97.0051L93.6195 14.5255L74.3304 14.5172L71.8128 23.2547Z" fill="#B60E0E"/>
<path fill-rule="evenodd" clip-rule="evenodd" d="M100.555 3.39795H182.314V51.528H100.555V3.39795Z" fill="#B60E0E"/>
<path d="M105.602 23.6444L111.587 8H113.858L120.209 23.6444H117.86L116.054 18.9013H109.485L107.794 23.6444H105.606H105.602ZM110.094 17.2188H115.413L113.784 12.8829C113.294 11.5666 112.924 10.4764 112.665 9.61668C112.451 10.6369 112.163 11.6365 111.805 12.6279L110.094 17.2188ZM121.76 23.6444V8H123.829V21.8096H131.501V23.6444H121.76ZM133.97 23.6444V8H139.86C140.897 8 141.687 8.04936 142.234 8.14809C142.999 8.27562 143.645 8.51832 144.163 8.87622C144.682 9.23822 145.101 9.74009 145.418 10.3859C145.735 11.0318 145.891 11.7393 145.891 12.5168C145.891 13.8414 145.471 14.9686 144.624 15.8859C143.781 16.8074 142.25 17.2681 140.045 17.2681H136.043V23.6485H133.974L133.97 23.6444ZM136.039 15.4293H140.07C141.407 15.4293 142.349 15.1825 142.913 14.6806C143.472 14.1829 143.752 13.4835 143.752 12.5744C143.752 11.9245 143.587 11.3609 143.258 10.896C142.929 10.4312 142.493 10.1185 141.954 9.97046C141.605 9.87996 140.963 9.83059 140.029 9.83059H136.039V15.4252V15.4293ZM148.59 23.6444V8H150.659V14.4461H158.722V8H160.791V23.6444H158.722V16.2809H150.659V23.6444H148.59ZM162.531 23.6444L168.516 8H170.787L177.139 23.6444H174.79L172.984 18.9013H166.414L164.723 23.6444H162.535H162.531ZM167.019 17.2188H172.338L170.709 12.8829C170.219 11.5666 169.849 10.4764 169.59 9.61668C169.376 10.6369 169.088 11.6365 168.73 12.6279L167.019 17.2188ZM107.424 48.055V32.4106H117.951V34.2453H109.497V39.12H116.82V40.9547H109.497V48.055H107.428H107.424ZM120.974 48.055V32.4106H123.044V48.055H120.974ZM126.594 48.055V32.4106H128.663V46.2203H136.335V48.055H126.594ZM141.148 48.055V34.2453H136.006V32.4106H148.363V34.2453H143.221V48.055H141.152H141.148ZM150.539 48.055V32.4106H161.807V34.2453H152.609V39.0542H161.219V40.8889H152.609V46.2203H162.177V48.055H150.539ZM165.073 48.055V32.4106H171.988C173.379 32.4106 174.436 32.5546 175.16 32.8343C175.884 33.1141 176.46 33.6118 176.892 34.3194C177.324 35.031 177.538 35.8168 177.538 36.6765C177.538 37.7872 177.18 38.7251 176.464 39.4862C175.748 40.2472 174.646 40.7285 173.148 40.9342C173.695 41.1975 174.111 41.4607 174.395 41.7117C174.999 42.267 175.567 42.9622 176.102 43.7932L178.8 48.055H176.221L174.16 44.801C173.56 43.859 173.062 43.1391 172.675 42.6414C172.284 42.1436 171.935 41.7981 171.626 41.5965C171.322 41.399 171.005 41.2633 170.684 41.181C170.45 41.1316 170.071 41.107 169.536 41.107H167.146V48.055H165.077H165.073ZM167.142 39.3134H171.573C172.519 39.3134 173.251 39.2147 173.782 39.0172C174.312 38.8239 174.716 38.5112 174.987 38.0793C175.263 37.6515 175.403 37.1825 175.403 36.6765C175.403 35.9361 175.139 35.3272 174.605 34.85C174.07 34.3729 173.226 34.1343 172.075 34.1343H167.142V39.3134Z" fill="white"/>
<path d="M194.066 0C194.914 0 195.743 0.217105 196.553 0.654605C197.362 1.08882 197.99 1.71382 198.441 2.52303C198.891 3.33553 199.118 4.18092 199.118 5.05921C199.118 5.9375 198.898 6.76974 198.451 7.57237C198.007 8.37829 197.385 9.00329 196.582 9.44737C195.78 9.89474 194.941 10.1151 194.066 10.1151C193.191 10.1151 192.349 9.89474 191.546 9.44737C190.743 9.00329 190.118 8.37829 189.671 7.57237C189.224 6.76974 189 5.93092 189 5.05921C189 4.1875 189.227 3.33553 189.681 2.52303C190.135 1.71382 190.766 1.08882 191.576 0.654605C192.385 0.217105 193.214 0 194.066 0ZM194.066 0.835526C193.355 0.835526 192.661 1.01974 191.987 1.38158C191.316 1.74671 190.789 2.26645 190.408 2.94408C190.03 3.62171 189.839 4.32566 189.839 5.05921C189.839 5.79276 190.026 6.48684 190.398 7.15461C190.77 7.82237 191.293 8.34539 191.964 8.7171C192.635 9.08882 193.336 9.27632 194.062 9.27632C194.789 9.27632 195.49 9.08882 196.161 8.7171C196.832 8.34539 197.352 7.82237 197.724 7.15461C198.095 6.48684 198.28 5.78947 198.28 5.05921C198.28 4.32895 198.089 3.62171 197.714 2.94408C197.336 2.26645 196.809 1.74671 196.135 1.38158C195.461 1.01645 194.77 0.835526 194.066 0.835526ZM191.845 7.85197V2.41447H193.717C194.359 2.41447 194.819 2.46382 195.105 2.56579C195.395 2.66776 195.622 2.83882 195.793 3.09211C195.961 3.34211 196.046 3.60855 196.046 3.88816C196.046 4.28289 195.905 4.63158 195.618 4.92434C195.336 5.22039 194.957 5.38487 194.487 5.42105C194.678 5.5 194.836 5.59868 194.947 5.71053C195.168 5.92434 195.434 6.28289 195.753 6.78947L196.418 7.85197H195.352L194.868 6.99671C194.49 6.32237 194.181 5.89803 193.947 5.73026C193.786 5.60526 193.553 5.54605 193.243 5.54605H192.727V7.85197H191.849H191.845ZM192.724 4.78947H193.789C194.299 4.78947 194.648 4.71382 194.832 4.5625C195.016 4.41118 195.112 4.21053 195.112 3.96382C195.112 3.80263 195.066 3.66118 194.977 3.53289C194.888 3.40461 194.763 3.3125 194.605 3.25C194.444 3.1875 194.151 3.15461 193.724 3.15461H192.724V4.78947Z" fill="#B60E0E"/>
<path fill-rule="evenodd" clip-rule="evenodd" d="M184 0H2H0V2V53V55H2H184H186V53V2V0H184ZM184 53V2H2V53H184Z" fill="#B60E0E"/>
</g>
<defs>
<clipPath id="clip0_2068_43061">
<rect width="200" height="55" fill="white"/>
</clipPath>
</defs>
</svg>
